<svg id="Layer_3" enable-background="new 0 0 64 64" height="512" viewBox="0 0 64 64" width="512" xmlns="http://www.w3.org/2000/svg"><g><path d="m62 1h-60c-.553 0-1 .447-1 1v16 44c0 .553.447 1 1 1h4 52 4c.553 0 1-.447 1-1v-44-16c0-.553-.447-1-1-1zm-23 51v-6h14v6zm12 2v3.72l-10-2.5v-1.22zm-10 3.28 10 2.5v1.22h-10zm12-3.28h1c.553 0 1-.447 1-1v-8c0-.553-.447-1-1-1h-16c-.553 0-1 .447-1 1v8c0 .553.447 1 1 1h1v7h-6v-31c0-.553-.447-1-1-1h-20c-.553 0-1 .447-1 1v14h-1c-.553 0-1 .447-1 1v8c0 .553.447 1 1 1h1v7h-4v-42h5v4c0 1.103.897 2 2 2h8c1.103 0 2-.897 2-2v-4h2v4c0 1.103.897 2 2 2h8c1.103 0 2-.897 2-2v-4h2v4c0 1.103.897 2 2 2h8c1.103 0 2-.897 2-2v-4h5v42h-4zm-22-21h-18v-2h18zm-18 2h18v22h-6v-3h1c.553 0 1-.447 1-1v-8c0-.553-.447-1-1-1h-13zm12 11v6h-14v-6zm-2 8v3.72l-10-2.5v-1.22zm-10 3.28 10 2.5v1.22h-10zm12 1.72h6v2h-6zm-11-40h8v4h-8zm14 0h8v4h-8zm14 0h8v4h-8zm-39-2v-5h1.5c1.181 0 2.323-.346 3.303-1l.504-.336c1.303-.869 3.084-.869 4.387 0l1.306.871v.465c0 1.654 1.346 3 3 3h30c1.654 0 3-1.346 3-3v-.465l1.307-.871c1.303-.869 3.084-.869 4.387 0l.503.336c.979.654 2.122 1 3.303 1h1.5v5zm13-5v-4c0-.552.448-1 1-1h30c.552 0 1 .448 1 1v4c0 .552-.448 1-1 1h-30c-.552 0-1-.448-1-1zm45-9v7h-1.5c-.784 0-1.542-.229-2.193-.664l-.504-.336c-1.959-1.309-4.646-1.309-6.605 0l-.198.132v-1.132c0-1.654-1.346-3-3-3h-30c-1.654 0-3 1.346-3 3v1.132l-.197-.132c-1.959-1.309-4.646-1.309-6.605 0l-.505.336c-.651.435-1.409.664-2.193.664h-1.5v-7zm-58 58v-42h2v42zm56 0v-42h2v42z"/><path d="m13 48h2v2h-2z"/><path d="m18 47h2v2h-2z"/><path d="m21 49h2v2h-2z"/><path d="m41 48h2v2h-2z"/><path d="m46 47h2v2h-2z"/><path d="m49 49h2v2h-2z"/><path d="m15.172 39h5.657v2h-5.657z" transform="matrix(.707 -.707 .707 .707 -23.012 24.444)"/><path d="m23.172 39h5.657v2h-5.657z" transform="matrix(.707 -.707 .707 .707 -20.669 30.101)"/></g></svg>